<svg width="10" height="11" viewBox="0 0 10 11" fill="none" xmlns="http://www.w3.org/2000/svg">
<path fill-rule="evenodd" clip-rule="evenodd" d="M5.19553 0.940104C5.04187 0.939403 4.88799 1.00232 4.77745 1.12883L0.920278 5.54331C0.719757 5.77281 0.743244 6.12141 0.972738 6.32193C1.20223 6.52245 1.55083 6.49896 1.75135 6.26947L4.64669 2.95579V10.3209C4.64669 10.6256 4.89374 10.8727 5.1985 10.8727C5.50325 10.8727 5.75031 10.6256 5.75031 10.3209L5.75031 2.96524L8.64614 6.27005C8.84698 6.49926 9.19561 6.52226 9.42482 6.32141C9.65403 6.12057 9.67703 5.77194 9.47618 5.54273L5.65519 1.18209C5.55591 1.03603 5.38841 0.940097 5.1985 0.940097C5.19751 0.940097 5.19652 0.9401 5.19553 0.940104Z" fill="#FE805C"/>
</svg>
