<svg aria-hidden="true" style="position: absolute; width: 0; height: 0; overflow: hidden;" version="1.1" xmlns="http://www.w3.org/2000/svg" xmlns:xlink="http://www.w3.org/1999/xlink">
<defs>
<symbol id="arrowdown" viewBox="0 0 29 32">
<path fill="#4643d3" style="fill: var(--color1, #4643d3)" d="M15.132 30.529c0.447 0.002 0.894-0.181 1.216-0.549l11.221-12.842c0.583-0.668 0.515-1.682-0.153-2.265s-1.682-0.515-2.265 0.153l-8.423 9.64v-21.426c0-0.887-0.719-1.605-1.605-1.605s-1.605 0.719-1.605 1.605v21.398l-8.424-9.614c-0.584-0.667-1.599-0.734-2.265-0.149s-0.734 1.598-0.149 2.265l11.116 12.685c0.289 0.425 0.776 0.704 1.329 0.704 0.003 0 0.006-0 0.009-0z"></path>
</symbol>
<symbol id="arrowup" viewBox="0 0 29 32">
<path fill="#fe805c" style="fill: var(--color2, #fe805c)" d="M15.114 2.735c-0.447-0.002-0.895 0.181-1.216 0.549l-11.221 12.842c-0.583 0.668-0.515 1.682 0.153 2.265s1.682 0.515 2.265-0.153l8.423-9.64v21.426c0 0.886 0.719 1.605 1.605 1.605s1.605-0.719 1.605-1.605v-21.398l8.424 9.614c0.584 0.667 1.598 0.734 2.265 0.149s0.734-1.598 0.149-2.265l-11.116-12.685c-0.289-0.425-0.776-0.704-1.329-0.704-0.003 0-0.006 0-0.009 0z"></path>
</symbol>
</defs>
</svg>
